<svg width="75" height="75" viewBox="0 0 75 75" fill="none" xmlns="http://www.w3.org/2000/svg">
<path d="M36.3333 28.2C34.4531 28.2 32.6151 28.7454 31.0517 29.7673C29.4883 30.7892 28.2699 32.2417 27.5503 33.941C26.8308 35.6404 26.6425 37.5103 27.0093 39.3143C27.3762 41.1184 28.2816 42.7755 29.6111 44.0761C30.9406 45.3767 32.6346 46.2625 34.4787 46.6213C36.3228 46.9801 38.2343 46.796 39.9714 46.0921C41.7085 45.3882 43.1932 44.1962 44.2378 42.6668C45.2824 41.1374 45.84 39.3394 45.84 37.5C45.84 36.2787 45.5941 35.0694 45.1163 33.941C44.6386 32.8127 43.9383 31.7875 43.0556 30.9239C42.1728 30.0603 41.1248 29.3753 39.9714 28.9079C38.818 28.4406 37.5818 28.2 36.3333 28.2ZM74.3983 19.0125C74.3782 16.1166 73.8331 13.2471 72.7883 10.5375C72.0189 8.55472 70.8284 6.7541 69.2955 5.25444C67.7625 3.75479 65.9218 2.59019 63.895 1.8375C61.1251 0.815489 58.1919 0.282228 55.2317 0.2625C50.2867 -2.51457e-07 48.83 0 36.3333 0C23.8367 0 22.38 -2.51457e-07 17.435 0.2625C14.4747 0.282228 11.5415 0.815489 8.77167 1.8375C6.74483 2.59019 4.90419 3.75479 3.37121 5.25444C1.83823 6.7541 0.647751 8.55472 -0.121667 10.5375C-1.16639 13.2471 -1.7115 16.1166 -1.73167 19.0125C-2 23.85 -2 25.275 -2 37.5C-2 49.725 -2 51.15 -1.73167 55.9875C-1.69041 58.8936 -1.14603 61.7718 -0.121667 64.5C0.644341 66.4737 1.83383 68.2639 3.36667 69.75C4.89308 71.2587 6.73766 72.4233 8.77167 73.1625C11.5415 74.1845 14.4747 74.7178 17.435 74.7375C22.38 75 23.8367 75 36.3333 75C48.83 75 50.2867 75 55.2317 74.7375C58.1919 74.7178 61.1251 74.1845 63.895 73.1625C65.929 72.4233 67.7736 71.2587 69.3 69.75C70.8328 68.2639 72.0223 66.4737 72.7883 64.5C73.832 61.7771 74.377 58.8955 74.3983 55.9875C74.6667 51.15 74.6667 49.725 74.6667 37.5C74.6667 25.275 74.6667 23.85 74.3983 19.0125ZM64.6617 49.0125C64.5386 51.3266 64.0338 53.6061 63.1667 55.7625C62.4225 57.5613 61.3162 59.1954 59.9135 60.5676C58.5108 61.9397 56.8405 63.022 55.0017 63.75C52.7765 64.551 50.4334 64.9942 48.0633 65.0625C45.035 65.0625 44.23 65.0625 36.3333 65.0625C28.4367 65.0625 27.6317 65.0625 24.6033 65.0625C22.2333 64.9942 19.8902 64.551 17.665 63.75C15.7641 63.0589 14.0474 61.9565 12.6433 60.525C11.2544 59.1797 10.1817 57.5545 9.5 55.7625C8.67797 53.5879 8.23733 51.2932 8.19667 48.975C8.19667 46.0125 8.19667 45.225 8.19667 37.5C8.19667 29.775 8.19667 28.9875 8.19667 26.025C8.23733 23.7068 8.67797 21.4121 9.5 19.2375C10.2064 17.3779 11.3334 15.6985 12.7967 14.325C14.1779 12.9736 15.8375 11.9254 17.665 11.25C19.8902 10.449 22.2333 10.0058 24.6033 9.9375C27.6317 9.9375 28.4367 9.9375 36.3333 9.9375C44.23 9.9375 45.035 9.9375 48.0633 9.9375C50.4334 10.0058 52.7765 10.449 55.0017 11.25C56.9026 11.9411 58.6193 13.0435 60.0233 14.475C61.4123 15.8203 62.4849 17.4455 63.1667 19.2375C63.9854 21.4143 64.4385 23.7065 64.5083 26.025C64.5083 28.9875 64.5083 29.775 64.5083 37.5C64.5083 45.225 64.7767 46.0125 64.6617 48.975V49.0125ZM58.5283 21.1125C58.0719 19.9012 57.3523 18.8012 56.4192 17.8883C55.486 16.9754 54.3616 16.2715 53.1233 15.825C51.4231 15.2485 49.6325 14.9692 47.8333 15C44.8433 15 44 15 36.3333 15C28.6667 15 27.8233 15 24.8333 15C23.025 15.0173 21.2341 15.3474 19.5433 15.975C18.3241 16.4012 17.2115 17.0764 16.2796 17.9558C15.3477 18.8351 14.6177 19.8984 14.1383 21.075C13.5816 22.7451 13.3097 24.4935 13.3333 26.25C13.3333 29.175 13.3333 30 13.3333 37.5C13.3333 45 13.3333 45.825 13.3333 48.75C13.3713 50.517 13.7081 52.2656 14.33 53.925C14.7864 55.1363 15.506 56.2363 16.4392 57.1492C17.3723 58.0621 18.4968 58.766 19.735 59.2125C21.3706 59.8009 23.0917 60.1301 24.8333 60.1875C27.8233 60.1875 28.6667 60.1875 36.3333 60.1875C44 60.1875 44.8433 60.1875 47.8333 60.1875C49.6416 60.1702 51.4326 59.8401 53.1233 59.2125C54.3616 58.766 55.486 58.0621 56.4192 57.1492C57.3523 56.2363 58.0719 55.1363 58.5283 53.925C59.1699 52.271 59.5073 50.519 59.525 48.75C59.525 45.825 59.525 45 59.525 37.5C59.525 30 59.525 29.175 59.525 26.25C59.5261 24.4792 59.1881 22.724 58.5283 21.075V21.1125ZM36.3333 51.825C34.4121 51.825 32.5098 51.4542 30.7354 50.7339C28.9609 50.0135 27.3492 48.9577 25.9925 47.627C24.6358 46.2963 23.5608 44.7169 22.8291 42.9791C22.0973 41.2413 21.7233 39.3794 21.7283 37.5C21.7283 34.6652 22.5881 31.8941 24.1989 29.5376C25.8096 27.181 28.0988 25.345 30.7768 24.2619C33.4547 23.1788 36.401 22.8973 39.2426 23.4531C42.0841 24.0088 44.6933 25.3769 46.7396 27.384C48.786 29.3912 50.1776 31.9471 50.7383 34.7284C51.299 37.5096 51.0035 40.3911 49.8893 43.008C48.7751 45.6249 46.8923 47.8595 44.4792 49.4291C42.066 50.9986 39.2311 51.8324 36.3333 51.825ZM51.6667 25.9875C50.8193 25.8998 50.0351 25.5083 49.4651 24.8886C48.8952 24.269 48.5798 23.4648 48.5798 22.6312C48.5798 21.7977 48.8952 20.9935 49.4651 20.3739C50.0351 19.7542 50.8193 19.3627 51.6667 19.275C52.5141 19.3627 53.2983 19.7542 53.8682 20.3739C54.4382 20.9935 54.7535 21.7977 54.7535 22.6312C54.7535 23.4648 54.4382 24.269 53.8682 24.8886C53.2983 25.5083 52.5141 25.8998 51.6667 25.9875Z" fill="white"/>
</svg>
