<svg width="60" height="57" viewBox="0 0 60 57" fill="none" xmlns="http://www.w3.org/2000/svg">
<path d="M56.7 0H3.3C2.42479 0 1.58542 0.330294 0.966548 0.918221C0.347678 1.50615 0 2.30355 0 3.135V53.865C0 54.2767 0.0853573 54.6844 0.251198 55.0647C0.417038 55.4451 0.660115 55.7907 0.966548 56.0818C1.27298 56.3729 1.63677 56.6038 2.03714 56.7614C2.43752 56.9189 2.86664 57 3.3 57H32.04V34.9125H24.24V26.3625H32.04V19.95C31.8784 18.4445 32.0655 16.9237 32.5881 15.4941C33.1108 14.0646 33.9563 12.761 35.0654 11.6748C36.1745 10.5885 37.5203 9.74598 39.0085 9.20618C40.4966 8.66638 42.0911 8.44242 43.68 8.55C46.015 8.53635 48.3488 8.65054 50.67 8.892V16.587H45.9C42.12 16.587 41.4 18.297 41.4 20.7765V26.277H50.4L49.23 34.827H41.4V57H56.7C57.1334 57 57.5625 56.9189 57.9629 56.7614C58.3632 56.6038 58.727 56.3729 59.0335 56.0818C59.3399 55.7907 59.583 55.4451 59.7488 55.0647C59.9146 54.6844 60 54.2767 60 53.865V3.135C60 2.72331 59.9146 2.31564 59.7488 1.93529C59.583 1.55493 59.3399 1.20933 59.0335 0.918221C58.727 0.627109 58.3632 0.396186 57.9629 0.238638C57.5625 0.0810894 57.1334 0 56.7 0Z" fill="white"/>
</svg>
