<svg width="71" height="52" viewBox="0 0 71 52" fill="none" xmlns="http://www.w3.org/2000/svg">
<path d="M64.6218 52H59.9062C58.6815 52 57.6875 51.0293 57.6875 49.8333V19.6098L36.7957 34.2622C36.0207 34.8053 34.9823 34.8053 34.2072 34.2622L13.3125 19.6098V49.8333C13.3125 51.0293 12.3185 52 11.0937 52H6.37817C2.80154 52 0 49.3018 0 45.8611V6.13889C0 4.46044 0.662667 2.90333 1.86671 1.75933C3.03229 0.629778 4.64162 0 6.37817 0H7.76562C8.22417 0 8.67383 0.138667 9.04954 0.398667L35.5 18.7113L61.9505 0.401555C62.3262 0.138666 62.7758 0 63.2344 0H64.6218C66.3495 0 67.9559 0.626889 69.1392 1.76511C70.3344 2.89756 71 4.45467 71 6.13889V45.8611C71 49.3018 68.1985 52 64.6218 52ZM62.125 47.6667H64.6218C65.746 47.6667 66.5625 46.9069 66.5625 45.8611V6.13889C66.5625 5.63044 66.3791 5.18844 66.0389 4.86489C65.678 4.51822 65.178 4.33333 64.6218 4.33333H63.9444L36.7839 23.1342C36.0147 23.6687 34.9882 23.6687 34.219 23.1342L7.05858 4.33333H6.37817C5.81904 4.33333 5.32204 4.51533 4.97296 4.85044C4.62092 5.18844 4.4375 5.63044 4.4375 6.13889V45.8611C4.4375 46.9069 5.254 47.6667 6.37817 47.6667H8.875V15.3862C8.875 14.5744 9.33946 13.8291 10.079 13.4593C10.8245 13.0924 11.712 13.156 12.3865 13.6269L35.5 29.8336L58.6105 13.6269C59.288 13.1531 60.1755 13.0896 60.918 13.4593C61.6605 13.8291 62.125 14.5716 62.125 15.3862V47.6667Z" fill="white"/>
</svg>
