<svg width="40" height="40" viewBox="0 0 40 40" fill="none" xmlns="http://www.w3.org/2000/svg">
<path d="M24.9583 5.03169L26.5583 2.14503C26.5788 2.10804 26.5918 2.06738 26.5965 2.02538C26.6013 1.98337 26.5977 1.94084 26.586 1.90022C26.5743 1.85959 26.5548 1.82166 26.5284 1.7886C26.5021 1.75554 26.4695 1.72799 26.4325 1.70753C26.3955 1.68706 26.3549 1.67408 26.3129 1.66933C26.2708 1.66458 26.2283 1.66815 26.1877 1.67983C26.1471 1.69152 26.1091 1.71109 26.0761 1.73743C26.043 1.76377 26.0155 1.79637 25.995 1.83336L24.3783 4.75003C22.9983 4.14494 21.5077 3.83254 20.0008 3.83254C18.4939 3.83254 17.0034 4.14494 15.6233 4.75003L14.0067 1.83336C13.9653 1.75822 13.8959 1.70257 13.8135 1.67866C13.7311 1.65474 13.6426 1.66453 13.5675 1.70586C13.4924 1.74719 13.4367 1.81668 13.4128 1.89904C13.3889 1.9814 13.3987 2.06988 13.44 2.14503L15.04 5.03169C13.5177 5.78251 12.2314 6.93803 11.3224 8.37154C10.4134 9.80505 9.91665 11.4612 9.88667 13.1584H30.115C30.0847 11.4608 29.5875 9.80446 28.6778 8.37091C27.7682 6.93737 26.4813 5.78205 24.9583 5.03169ZM15.3333 9.45669C15.1661 9.45669 15.0027 9.40709 14.8637 9.31417C14.7247 9.22125 14.6164 9.08918 14.5525 8.93467C14.4886 8.78017 14.472 8.61019 14.5047 8.44623C14.5374 8.28227 14.6181 8.13171 14.7364 8.0136C14.8548 7.89549 15.0055 7.81514 15.1695 7.78273C15.3335 7.75031 15.5035 7.76728 15.6579 7.83149C15.8122 7.89571 15.9441 8.00427 16.0367 8.14345C16.1294 8.28263 16.1787 8.44616 16.1783 8.61336C16.1779 8.83718 16.0887 9.05168 15.9303 9.20979C15.7718 9.3679 15.5572 9.45669 15.3333 9.45669ZM24.67 9.45669C24.5028 9.45669 24.3394 9.40709 24.2004 9.31417C24.0614 9.22125 23.9531 9.08918 23.8892 8.93467C23.8253 8.78017 23.8086 8.61019 23.8414 8.44623C23.8741 8.28227 23.9547 8.13171 24.0731 8.0136C24.1914 7.89549 24.3422 7.81514 24.5062 7.78273C24.6702 7.75031 24.8402 7.76728 24.9945 7.83149C25.1489 7.89571 25.2808 8.00427 25.3734 8.14345C25.4661 8.28263 25.5153 8.44616 25.515 8.61336C25.5146 8.83718 25.4253 9.05168 25.2669 9.20979C25.1085 9.3679 24.8938 9.45669 24.67 9.45669ZM9.88334 28.6184C9.8829 28.9401 9.94598 29.2589 10.069 29.5562C10.192 29.8536 10.3724 30.1237 10.6 30.3512C10.8277 30.5786 11.0979 30.7589 11.3954 30.8817C11.6928 31.0045 12.0116 31.0674 12.3333 31.0667H13.955V36.0667C13.955 36.6681 14.1939 37.2448 14.6191 37.6701C15.0444 38.0953 15.6211 38.3342 16.2225 38.3342C16.8239 38.3342 17.4006 38.0953 17.8259 37.6701C18.2511 37.2448 18.49 36.6681 18.49 36.0667V31.0667H21.5133V36.0667C21.5133 36.6679 21.7521 37.2444 22.1772 37.6695C22.6023 38.0946 23.1788 38.3334 23.78 38.3334C24.3812 38.3334 24.9577 38.0946 25.3828 37.6695C25.8079 37.2444 26.0467 36.6679 26.0467 36.0667V31.0667H27.67C27.9914 31.0669 28.3096 31.0038 28.6066 30.8809C28.9035 30.758 29.1733 30.5778 29.4005 30.3506C29.6278 30.1233 29.808 29.8535 29.9309 29.5566C30.0538 29.2596 30.1169 28.9414 30.1167 28.62V13.9584H9.88334V28.6184ZM6.77167 13.5684C6.1705 13.5692 5.59422 13.8086 5.16928 14.2338C4.74434 14.6591 4.50545 15.2355 4.505 15.8367V25.285C4.505 25.5827 4.56363 25.8774 4.67754 26.1524C4.79146 26.4274 4.95842 26.6773 5.1689 26.8878C5.37938 27.0983 5.62925 27.2652 5.90426 27.3792C6.17926 27.4931 6.47401 27.5517 6.77167 27.5517C7.06933 27.5517 7.36408 27.4931 7.63909 27.3792C7.91409 27.2652 8.16397 27.0983 8.37445 26.8878C8.58493 26.6773 8.75189 26.4274 8.8658 26.1524C8.97971 25.8774 9.03834 25.5827 9.03834 25.285V15.8367C9.03746 15.2358 8.79836 14.6598 8.37347 14.2349C7.94858 13.81 7.37256 13.5709 6.77167 13.57V13.5684ZM33.225 13.5684C32.6238 13.5692 32.0476 13.8086 31.6226 14.2338C31.1977 14.6591 30.9588 15.2355 30.9583 15.8367V25.285C30.9583 25.5827 31.017 25.8774 31.1309 26.1524C31.2448 26.4274 31.4118 26.6773 31.6222 26.8878C31.8327 27.0983 32.0826 27.2652 32.3576 27.3792C32.6326 27.4931 32.9273 27.5517 33.225 27.5517C33.5227 27.5517 33.8174 27.4931 34.0924 27.3792C34.3674 27.2652 34.6173 27.0983 34.8278 26.8878C35.0383 26.6773 35.2052 26.4274 35.3191 26.1524C35.433 25.8774 35.4917 25.5827 35.4917 25.285V15.8367C35.4908 15.2358 35.2517 14.6598 34.8268 14.2349C34.4019 13.81 33.8259 13.5709 33.225 13.57V13.5684Z" fill="white"/>
</svg>
