<svg width="72" height="69" viewBox="0 0 72 69" fill="none" xmlns="http://www.w3.org/2000/svg">
<path d="M36.0001 2.83203C28.8765 2.83233 21.9855 5.40259 16.56 10.0829C11.1345 14.7632 7.52858 21.2482 6.38748 28.3774C5.24638 35.5067 6.64454 42.815 10.3318 48.9947C14.019 55.1743 19.7547 59.8222 26.5126 62.1065C28.0126 62.3727 28.5751 61.4602 28.5751 60.6617C28.5751 59.9393 28.5376 57.544 28.5376 54.9966C21.0001 56.4034 19.0501 53.1337 18.4501 51.4227C17.7843 49.7587 16.7289 48.2841 15.3751 47.1263C14.3251 46.556 12.8251 45.1492 15.3376 45.1113C16.2969 45.2168 17.217 45.5553 18.02 46.098C18.8229 46.6407 19.485 47.3716 19.9501 48.2289C20.3604 48.9762 20.9121 49.6341 21.5737 50.1649C22.2352 50.6957 22.9935 51.0889 23.8052 51.322C24.6169 51.5551 25.4659 51.6235 26.3037 51.5234C27.1415 51.4232 27.9516 51.1564 28.6875 50.7382C28.8174 49.1919 29.4971 47.7462 30.6001 46.6701C23.9251 45.9097 16.9501 43.2862 16.9501 31.6519C16.9079 28.6289 18.0081 25.7042 20.0251 23.4774C19.1079 20.8501 19.2152 17.9668 20.3251 15.417C20.3251 15.417 22.8375 14.6185 28.5751 18.5347C33.4839 17.1659 38.6662 17.1659 43.5751 18.5347C49.3125 14.5806 51.8251 15.417 51.8251 15.417C52.9351 17.9668 53.0424 20.8501 52.1251 23.4774C54.1481 25.7004 55.2493 28.6277 55.2001 31.6519C55.2001 43.3242 48.1875 45.9097 41.5126 46.6701C42.2285 47.4059 42.7799 48.2892 43.1293 49.2601C43.4788 50.2311 43.618 51.2669 43.5376 52.2972C43.5376 56.3655 43.5001 59.6352 43.5001 60.6618C43.5001 61.4603 44.0626 62.4108 45.5626 62.1066C52.3086 59.8037 58.0278 55.1449 61.6993 48.9621C65.3709 42.7792 66.7557 35.4747 65.6067 28.3523C64.4577 21.23 60.8496 14.7535 55.4265 10.0788C50.0034 5.40422 43.1182 2.83579 36.0001 2.83203Z" fill="white"/>
</svg>
