<svg width="54" height="48" viewBox="0 0 54 48" fill="none" xmlns="http://www.w3.org/2000/svg">
<path d="M46.0592 4.00028H7.94422C7.51577 3.99499 7.09035 4.06477 6.69224 4.20565C6.29414 4.34652 5.93115 4.55572 5.62401 4.8213C5.31688 5.08689 5.0716 5.40365 4.9022 5.7535C4.7328 6.10335 4.64259 6.47944 4.63672 6.86028V41.1403C4.64259 41.5211 4.7328 41.8972 4.9022 42.2471C5.0716 42.5969 5.31688 42.9137 5.62401 43.1793C5.93115 43.4448 6.29414 43.654 6.69224 43.7949C7.09035 43.9358 7.51577 44.0056 7.94422 44.0003H46.0592C46.4877 44.0056 46.9131 43.9358 47.3112 43.7949C47.7093 43.654 48.0723 43.4448 48.3794 43.1793C48.6866 42.9137 48.9318 42.5969 49.1012 42.2471C49.2706 41.8972 49.3609 41.5211 49.3667 41.1403V6.86028C49.3609 6.47944 49.2706 6.10335 49.1012 5.7535C48.9318 5.40365 48.6866 5.08689 48.3794 4.8213C48.0723 4.55572 47.7093 4.34652 47.3112 4.20565C46.9131 4.06477 46.4877 3.99499 46.0592 4.00028ZM18.2042 37.4803H11.4542V19.4803H18.2042V37.4803ZM14.8292 16.9603C13.8983 16.9603 13.0055 16.6316 12.3473 16.0465C11.689 15.4613 11.3192 14.6678 11.3192 13.8403C11.3192 13.0128 11.689 12.2192 12.3473 11.6341C13.0055 11.049 13.8983 10.7203 14.8292 10.7203C15.3235 10.6704 15.8241 10.714 16.2982 10.848C16.7723 10.9821 17.2091 11.2037 17.5802 11.4982C17.9513 11.7927 18.2482 12.1536 18.4514 12.5572C18.6547 12.9609 18.7598 13.3981 18.7598 13.8403C18.7598 14.2825 18.6547 14.7197 18.4514 15.1233C18.2482 15.5269 17.9513 15.8878 17.5802 16.1824C17.2091 16.4769 16.7723 16.6985 16.2982 16.8325C15.8241 16.9666 15.3235 17.0101 14.8292 16.9603ZM42.5492 37.4803H35.7992V27.8203C35.7992 25.4003 34.8317 23.8203 32.3792 23.8203C31.6202 23.8252 30.8811 24.0368 30.2616 24.4266C29.6421 24.8164 29.1718 25.3656 28.9142 26.0003C28.7381 26.4704 28.6619 26.9654 28.6892 27.4603V37.4603H21.9392C21.9392 37.4603 21.9392 21.1003 21.9392 19.4603H28.6892V22.0003C29.3024 21.0545 30.1943 20.2753 31.2687 19.7467C32.3432 19.218 33.5595 18.96 34.7867 19.0003C39.2867 19.0003 42.5492 21.5803 42.5492 27.1203V37.4803Z" fill="white"/>
</svg>
