<svg width="45" height="45" viewBox="0 0 45 45" fill="none" xmlns="http://www.w3.org/2000/svg">
<path d="M36.5625 7.73438H8.4375C7.5051 7.73438 6.61089 8.10477 5.95158 8.76408C5.29227 9.42339 4.92188 10.3176 4.92188 11.25V30.9375C4.92188 31.8699 5.29227 32.7641 5.95158 33.4234C6.61089 34.0827 7.5051 34.4531 8.4375 34.4531H21.7969V38.6719H16.875C16.6885 38.6719 16.5097 38.746 16.3778 38.8778C16.246 39.0097 16.1719 39.1885 16.1719 39.375C16.1719 39.5615 16.246 39.7403 16.3778 39.8722C16.5097 40.004 16.6885 40.0781 16.875 40.0781H28.125C28.3115 40.0781 28.4903 40.004 28.6222 39.8722C28.754 39.7403 28.8281 39.5615 28.8281 39.375C28.8281 39.1885 28.754 39.0097 28.6222 38.8778C28.4903 38.746 28.3115 38.6719 28.125 38.6719H23.2031V34.4531H36.5625C37.4949 34.4531 38.3891 34.0827 39.0484 33.4234C39.7077 32.7641 40.0781 31.8699 40.0781 30.9375V11.25C40.0781 10.3176 39.7077 9.42339 39.0484 8.76408C38.3891 8.10477 37.4949 7.73438 36.5625 7.73438ZM8.4375 9.14062H36.5625C37.1219 9.14062 37.6585 9.36286 38.0541 9.75845C38.4496 10.154 38.6719 10.6906 38.6719 11.25V26.0156H6.32812V11.25C6.32812 10.6906 6.55036 10.154 6.94595 9.75845C7.34153 9.36286 7.87806 9.14062 8.4375 9.14062ZM36.5625 33.0469H8.4375C7.87806 33.0469 7.34153 32.8246 6.94595 32.4291C6.55036 32.0335 6.32812 31.4969 6.32812 30.9375V27.4219H38.6719V30.9375C38.6719 31.4969 38.4496 32.0335 38.0541 32.4291C37.6585 32.8246 37.1219 33.0469 36.5625 33.0469Z" fill="white"/>
</svg>
