<svg width="79" height="73" viewBox="0 0 79 73" fill="none" xmlns="http://www.w3.org/2000/svg">
<path d="M79 16.6075C78.9556 15.0328 78.8238 13.4612 78.605 11.899C78.3101 10.5307 77.8185 9.20497 77.1435 7.957C76.4375 6.60323 75.4893 5.36925 74.339 4.307C73.1781 3.25655 71.845 2.38196 70.389 1.7155C69.0367 1.10392 67.602 0.662013 66.123 0.4015C64.4485 0.169723 62.7598 0.0356244 61.067 0H17.9725C16.2684 0.0410129 14.5676 0.16284 12.877 0.365C11.3962 0.63754 9.96154 1.09173 8.611 1.7155C7.14596 2.36789 5.81056 3.24402 4.661 4.307C3.52421 5.37977 2.57773 6.61159 1.8565 7.957C1.19466 9.20663 0.716425 10.5324 0.4345 11.899C0.183673 13.4464 0.0385524 15.0068 0 16.571C0 17.2645 0 18.25 0 18.542V54.458C0 54.8595 0 55.7355 0 56.3925C0.0443838 57.9672 0.176224 59.5388 0.395 61.101C0.68994 62.4693 1.18146 63.795 1.8565 65.043C2.56251 66.3968 3.51065 67.6308 4.661 68.693C5.82195 69.7435 7.15501 70.618 8.611 71.2845C9.96334 71.8961 11.398 72.338 12.877 72.5985C14.5515 72.8303 16.2402 72.9644 17.933 73H61.0275C62.7316 72.959 64.4324 72.8372 66.123 72.635C67.6038 72.3625 69.0385 71.9083 70.389 71.2845C71.854 70.6321 73.1894 69.756 74.339 68.693C75.4758 67.6202 76.4223 66.3884 77.1435 65.043C77.8053 63.7934 78.2836 62.4676 78.5655 61.101C78.8163 59.5536 78.9614 57.9932 79 56.429C79 55.7355 79 54.8595 79 54.458V18.542C79 18.25 79 17.2645 79 16.6075ZM40.4085 62.05C35.6648 62.0284 31.0041 60.8983 26.86 58.765L11.85 62.415L15.8 48.837C13.2527 44.8821 11.8894 40.3723 11.85 35.77C11.8657 30.5977 13.5375 25.5453 16.6546 21.2492C19.7718 16.9532 24.195 13.6055 29.3672 11.6279C34.5393 9.65024 40.2292 9.1311 45.72 10.1358C51.2109 11.1406 56.2572 13.6242 60.2234 17.274C64.1896 20.9238 66.8984 25.5765 68.0085 30.6461C69.1187 35.7157 68.5805 40.9755 66.4619 45.763C64.3432 50.5505 60.7388 54.6517 56.1026 57.5499C51.4665 60.4482 46.0058 62.014 40.4085 62.05ZM40.4085 14.1255C36.2207 14.1698 32.1205 15.2387 28.5251 17.2234C24.9298 19.2081 21.9678 22.0377 19.9408 25.4241C17.9137 28.8106 16.894 32.6329 16.9853 36.5019C17.0767 40.371 18.276 44.1485 20.461 47.45L21.014 48.2895L18.644 56.283L27.65 54.02L28.519 54.4945C32.1118 56.45 36.1994 57.495 40.369 57.524C46.6546 57.524 52.6828 55.2167 57.1274 51.1096C61.572 47.0026 64.069 41.4322 64.069 35.624C64.069 29.8158 61.572 24.2454 57.1274 20.1384C52.6828 16.0313 46.6546 13.724 40.369 13.724L40.4085 14.1255ZM54.2335 45.2235C53.7161 46.0209 53.0234 46.7091 52.2001 47.2435C51.3768 47.7779 50.4413 48.1467 49.454 48.326C47.9788 48.5752 46.4601 48.4874 45.03 48.0705C43.6844 47.6818 42.3654 47.2186 41.08 46.6835C36.1968 44.4193 32.0323 41.0238 28.993 36.8285C27.3414 34.8848 26.3393 32.5381 26.1095 30.076C26.086 29.0532 26.2954 28.0373 26.7241 27.0941C27.1528 26.1509 27.7912 25.3015 28.598 24.601C28.8356 24.352 29.1272 24.1519 29.4538 24.0136C29.7804 23.8753 30.1348 23.8018 30.494 23.798H31.6C32.0345 23.798 32.627 23.798 33.18 24.9295C33.733 26.061 35.1945 29.4555 35.392 29.784C35.4891 29.9591 35.5397 30.153 35.5397 30.3497C35.5397 30.5465 35.4891 30.7404 35.392 30.9155C35.2174 31.3121 34.9776 31.6815 34.681 32.0105C34.3255 32.412 33.9305 32.8865 33.6145 33.1785C33.2985 33.4705 32.9035 33.8355 33.2985 34.4925C34.3732 36.1685 35.7036 37.6928 37.2485 39.0185C38.9309 40.3922 40.8545 41.4908 42.9365 42.267C43.6475 42.5955 44.082 42.559 44.477 42.267C44.872 41.975 46.2545 40.369 46.7285 39.712C47.2025 39.055 47.6765 39.1645 48.3085 39.3835C48.9405 39.6025 52.456 41.172 53.167 41.5005C53.878 41.829 54.3125 41.975 54.51 42.267C54.6813 43.2223 54.5861 44.2022 54.2335 45.114V45.2235Z" fill="white"/>
</svg>
